<svg xmlns="http://www.w3.org/2000/svg" xmlns:xlink="http://www.w3.org/1999/xlink" width="400" zoomAndPan="magnify" viewBox="0 0 300 299.999988" height="400" preserveAspectRatio="xMidYMid meet" version="1.0"><defs><clipPath id="47ea0fa883"><path d="M 15.75 0 L 284.25 0 L 284.25 300 L 15.75 300 Z M 15.75 0 " clip-rule="nonzero"/></clipPath></defs><g clip-path="url(#47ea0fa883)"><path fill="#0277bd" d="M 284.210938 0 L 15.789062 0 L 39.472656 268.421875 L 150 300 L 260.527344 268.421875 Z M 284.210938 0 " fill-opacity="1" fill-rule="nonzero"/></g><path fill="#039be5" d="M 150 23.683594 L 150 275.527344 L 238.421875 250.261719 L 258.15625 23.683594 Z M 150 23.683594 " fill-opacity="1" fill-rule="nonzero"/><path fill="#ffffff" d="M 221.84375 63.15625 L 150 63.15625 L 150 94.738281 L 188.683594 94.738281 L 186.316406 126.316406 L 150 126.316406 L 150 157.894531 L 184.738281 157.894531 L 182.367188 193.421875 L 150 204.472656 L 150 237.632812 L 212.367188 217.105469 L 217.894531 126.316406 Z M 221.84375 63.15625 " fill-opacity="1" fill-rule="nonzero"/><path fill="#eeeeee" d="M 150 63.15625 L 150 94.738281 L 79.738281 94.738281 L 77.367188 63.15625 Z M 113.683594 126.316406 L 115.261719 157.894531 L 150 157.894531 L 150 126.316406 Z M 116.84375 173.683594 L 85.261719 173.683594 L 87.632812 217.105469 L 150 237.632812 L 150 204.472656 L 117.632812 193.421875 Z M 116.84375 173.683594 " fill-opacity="1" fill-rule="nonzero"/></svg>