<svg xmlns="http://www.w3.org/2000/svg" xmlns:xlink="http://www.w3.org/1999/xlink" width="400" zoomAndPan="magnify" viewBox="0 0 300 299.999988" height="400" preserveAspectRatio="xMidYMid meet" version="1.0"><path fill="#f03c2e" d="M 294.335938 136.640625 L 163.359375 5.664062 C 162.910156 5.214844 162.445312 4.789062 161.953125 4.390625 C 161.464844 3.988281 160.957031 3.609375 160.433594 3.257812 C 159.90625 2.90625 159.363281 2.582031 158.804688 2.285156 C 158.25 1.984375 157.675781 1.714844 157.09375 1.472656 C 156.507812 1.230469 155.914062 1.019531 155.308594 0.835938 C 154.703125 0.652344 154.089844 0.496094 153.46875 0.375 C 152.847656 0.25 152.222656 0.15625 151.59375 0.09375 C 150.964844 0.0351562 150.332031 0.00390625 149.699219 0.00390625 C 149.066406 0.00390625 148.4375 0.0351562 147.804688 0.09375 C 147.175781 0.15625 146.550781 0.25 145.929688 0.375 C 145.3125 0.496094 144.699219 0.652344 144.09375 0.835938 C 143.488281 1.019531 142.890625 1.230469 142.308594 1.472656 C 141.722656 1.714844 141.152344 1.984375 140.59375 2.285156 C 140.035156 2.582031 139.492188 2.90625 138.96875 3.257812 C 138.441406 3.609375 137.933594 3.988281 137.445312 4.390625 C 136.957031 4.789062 136.488281 5.214844 136.039062 5.664062 L 108.851562 32.851562 L 143.351562 67.351562 C 151.378906 64.539062 160.566406 66.460938 166.960938 72.851562 C 167.714844 73.613281 168.417969 74.417969 169.0625 75.277344 C 169.707031 76.132812 170.285156 77.03125 170.804688 77.96875 C 171.324219 78.90625 171.773438 79.875 172.15625 80.875 C 172.539062 81.878906 172.851562 82.898438 173.089844 83.945312 C 173.332031 84.988281 173.496094 86.046875 173.585938 87.113281 C 173.679688 88.179688 173.695312 89.25 173.636719 90.320312 C 173.582031 91.390625 173.449219 92.453125 173.242188 93.503906 C 173.035156 94.554688 172.757812 95.585938 172.40625 96.601562 L 205.660156 129.851562 C 213.703125 127.078125 222.984375 128.867188 229.40625 135.308594 C 229.9375 135.84375 230.445312 136.398438 230.921875 136.980469 C 231.402344 137.5625 231.847656 138.167969 232.269531 138.792969 C 232.6875 139.421875 233.074219 140.066406 233.429688 140.730469 C 233.785156 141.394531 234.105469 142.074219 234.394531 142.769531 C 234.683594 143.464844 234.9375 144.175781 235.15625 144.894531 C 235.375 145.617188 235.558594 146.34375 235.703125 147.085938 C 235.851562 147.824219 235.960938 148.566406 236.035156 149.316406 C 236.109375 150.066406 236.144531 150.816406 236.144531 151.570312 C 236.144531 152.324219 236.109375 153.074219 236.035156 153.824219 C 235.960938 154.574219 235.851562 155.320312 235.703125 156.058594 C 235.558594 156.796875 235.375 157.527344 235.15625 158.246094 C 234.9375 158.96875 234.683594 159.675781 234.394531 160.375 C 234.109375 161.070312 233.785156 161.75 233.429688 162.414062 C 233.074219 163.078125 232.6875 163.722656 232.269531 164.347656 C 231.851562 164.976562 231.402344 165.578125 230.925781 166.164062 C 230.449219 166.746094 229.941406 167.300781 229.410156 167.835938 C 228.875 168.367188 228.320312 168.871094 227.738281 169.351562 C 227.15625 169.828125 226.550781 170.277344 225.921875 170.695312 C 225.296875 171.113281 224.652344 171.5 223.988281 171.855469 C 223.324219 172.210938 222.644531 172.53125 221.945312 172.820312 C 221.25 173.105469 220.542969 173.359375 219.820312 173.578125 C 219.101562 173.796875 218.371094 173.980469 217.632812 174.125 C 216.894531 174.273438 216.148438 174.382812 215.398438 174.457031 C 214.648438 174.53125 213.898438 174.566406 213.144531 174.566406 C 212.390625 174.566406 211.640625 174.527344 210.890625 174.453125 C 210.140625 174.382812 209.394531 174.269531 208.65625 174.121094 C 207.917969 173.976562 207.1875 173.792969 206.46875 173.574219 C 205.746094 173.355469 205.039062 173.101562 204.34375 172.8125 C 203.648438 172.523438 202.96875 172.203125 202.304688 171.847656 C 201.640625 171.492188 200.996094 171.101562 200.367188 170.683594 C 199.742188 170.265625 199.136719 169.816406 198.554688 169.339844 C 197.972656 168.859375 197.417969 168.355469 196.882812 167.820312 C 190.132812 161.070312 188.464844 151.132812 191.878906 142.820312 L 160.867188 111.804688 L 160.867188 193.414062 C 163.132812 194.535156 165.164062 195.988281 166.960938 197.765625 C 167.492188 198.296875 167.996094 198.855469 168.472656 199.4375 C 168.953125 200.019531 169.398438 200.625 169.820312 201.25 C 170.238281 201.875 170.625 202.519531 170.976562 203.183594 C 171.332031 203.847656 171.65625 204.527344 171.941406 205.222656 C 172.230469 205.917969 172.484375 206.628906 172.703125 207.347656 C 172.921875 208.070312 173.105469 208.796875 173.25 209.535156 C 173.398438 210.273438 173.507812 211.019531 173.582031 211.769531 C 173.65625 212.519531 173.691406 213.269531 173.691406 214.023438 C 173.691406 214.773438 173.65625 215.527344 173.582031 216.273438 C 173.507812 217.023438 173.398438 217.769531 173.25 218.507812 C 173.105469 219.246094 172.921875 219.976562 172.703125 220.695312 C 172.484375 221.414062 172.230469 222.125 171.941406 222.820312 C 171.65625 223.515625 171.332031 224.195312 170.976562 224.859375 C 170.625 225.523438 170.238281 226.167969 169.820312 226.792969 C 169.398438 227.421875 168.953125 228.023438 168.472656 228.605469 C 167.996094 229.1875 167.492188 229.746094 166.960938 230.277344 C 166.425781 230.808594 165.871094 231.316406 165.289062 231.792969 C 164.707031 232.269531 164.101562 232.71875 163.476562 233.136719 C 162.847656 233.554688 162.203125 233.941406 161.539062 234.296875 C 160.875 234.652344 160.195312 234.972656 159.5 235.261719 C 158.804688 235.550781 158.097656 235.804688 157.375 236.023438 C 156.65625 236.242188 155.925781 236.421875 155.1875 236.570312 C 154.449219 236.714844 153.707031 236.828125 152.957031 236.902344 C 152.207031 236.976562 151.457031 237.011719 150.703125 237.011719 C 149.949219 237.011719 149.199219 236.976562 148.449219 236.902344 C 147.699219 236.828125 146.957031 236.714844 146.21875 236.570312 C 145.480469 236.421875 144.75 236.242188 144.03125 236.023438 C 143.308594 235.804688 142.601562 235.550781 141.90625 235.261719 C 141.210938 234.972656 140.53125 234.652344 139.867188 234.296875 C 139.203125 233.941406 138.558594 233.554688 137.929688 233.136719 C 137.304688 232.71875 136.699219 232.269531 136.117188 231.792969 C 135.535156 231.316406 134.980469 230.808594 134.445312 230.277344 C 133.914062 229.746094 133.40625 229.1875 132.929688 228.605469 C 132.453125 228.027344 132.003906 227.421875 131.585938 226.796875 C 131.164062 226.167969 130.777344 225.523438 130.421875 224.859375 C 130.066406 224.195312 129.746094 223.515625 129.457031 222.820312 C 129.167969 222.125 128.914062 221.417969 128.695312 220.695312 C 128.476562 219.976562 128.292969 219.246094 128.148438 218.507812 C 128 217.769531 127.890625 217.023438 127.816406 216.277344 C 127.742188 215.527344 127.703125 214.773438 127.703125 214.023438 C 127.703125 213.269531 127.742188 212.515625 127.816406 211.769531 C 127.890625 211.019531 128 210.273438 128.148438 209.535156 C 128.292969 208.796875 128.476562 208.066406 128.695312 207.347656 C 128.914062 206.625 129.167969 205.917969 129.457031 205.222656 C 129.746094 204.527344 130.066406 203.847656 130.421875 203.183594 C 130.777344 202.519531 131.164062 201.875 131.585938 201.246094 C 132.003906 200.621094 132.453125 200.019531 132.929688 199.4375 C 133.40625 198.855469 133.914062 198.296875 134.445312 197.765625 C 136.667969 195.554688 139.132812 193.875 141.976562 192.75 L 141.976562 110.382812 C 139.238281 109.257812 136.667969 107.597656 134.445312 105.367188 C 133.644531 104.5625 132.90625 103.707031 132.230469 102.796875 C 131.554688 101.886719 130.949219 100.929688 130.414062 99.929688 C 129.878906 98.929688 129.421875 97.894531 129.042969 96.824219 C 128.660156 95.757812 128.363281 94.664062 128.140625 93.550781 C 127.921875 92.441406 127.789062 91.316406 127.734375 90.183594 C 127.683594 89.050781 127.710938 87.917969 127.828125 86.792969 C 127.941406 85.664062 128.140625 84.546875 128.417969 83.449219 C 128.699219 82.351562 129.058594 81.277344 129.496094 80.230469 L 95.464844 46.21875 L 5.652344 135.9375 C 5.207031 136.386719 4.78125 136.851562 4.378906 137.34375 C 3.976562 137.832031 3.601562 138.339844 3.25 138.863281 C 2.894531 139.390625 2.570312 139.933594 2.273438 140.492188 C 1.972656 141.050781 1.703125 141.621094 1.460938 142.207031 C 1.21875 142.789062 1.003906 143.386719 0.820312 143.992188 C 0.636719 144.597656 0.484375 145.210938 0.359375 145.832031 C 0.238281 146.453125 0.144531 147.078125 0.0820312 147.707031 C 0.0195312 148.335938 -0.0117188 148.96875 -0.0117188 149.601562 C -0.0117188 150.234375 0.0195312 150.867188 0.0820312 151.496094 C 0.144531 152.125 0.238281 152.75 0.359375 153.371094 C 0.484375 153.992188 0.636719 154.605469 0.820312 155.210938 C 1.003906 155.816406 1.21875 156.414062 1.460938 156.996094 C 1.703125 157.582031 1.972656 158.152344 2.273438 158.710938 C 2.570312 159.269531 2.894531 159.8125 3.25 160.339844 C 3.601562 160.863281 3.976562 161.371094 4.378906 161.859375 C 4.78125 162.351562 5.207031 162.816406 5.652344 163.265625 L 136.640625 294.234375 C 137.089844 294.683594 137.554688 295.105469 138.046875 295.507812 C 138.535156 295.910156 139.042969 296.285156 139.566406 296.636719 C 140.09375 296.988281 140.636719 297.3125 141.195312 297.613281 C 141.75 297.910156 142.324219 298.179688 142.90625 298.421875 C 143.492188 298.664062 144.085938 298.878906 144.691406 299.0625 C 145.296875 299.246094 145.910156 299.398438 146.53125 299.523438 C 147.152344 299.644531 147.777344 299.738281 148.40625 299.800781 C 149.035156 299.863281 149.667969 299.894531 150.300781 299.894531 C 150.933594 299.894531 151.5625 299.863281 152.195312 299.800781 C 152.824219 299.738281 153.449219 299.644531 154.070312 299.523438 C 154.6875 299.398438 155.300781 299.246094 155.90625 299.0625 C 156.511719 298.878906 157.109375 298.664062 157.691406 298.421875 C 158.277344 298.179688 158.847656 297.910156 159.40625 297.613281 C 159.964844 297.3125 160.507812 296.988281 161.03125 296.636719 C 161.558594 296.285156 162.066406 295.910156 162.554688 295.507812 C 163.042969 295.105469 163.511719 294.683594 163.960938 294.234375 L 294.335938 164.0625 C 294.785156 163.613281 295.210938 163.148438 295.613281 162.65625 C 296.015625 162.167969 296.390625 161.660156 296.742188 161.136719 C 297.09375 160.609375 297.417969 160.066406 297.71875 159.507812 C 298.015625 158.949219 298.289062 158.378906 298.53125 157.792969 C 298.773438 157.210938 298.984375 156.613281 299.167969 156.007812 C 299.351562 155.402344 299.507812 154.789062 299.628906 154.167969 C 299.753906 153.546875 299.847656 152.921875 299.910156 152.292969 C 299.972656 151.664062 300.003906 151.03125 300.003906 150.398438 C 300.003906 149.765625 299.972656 149.132812 299.910156 148.503906 C 299.847656 147.875 299.753906 147.25 299.628906 146.628906 C 299.507812 146.007812 299.351562 145.394531 299.167969 144.789062 C 298.984375 144.183594 298.773438 143.585938 298.53125 143.003906 C 298.289062 142.417969 298.015625 141.847656 297.71875 141.289062 C 297.417969 140.730469 297.09375 140.1875 296.742188 139.660156 C 296.390625 139.136719 296.015625 138.628906 295.613281 138.140625 C 295.210938 137.648438 294.785156 137.183594 294.335938 136.734375 " fill-opacity="1" fill-rule="nonzero"/></svg>