<svg xmlns="http://www.w3.org/2000/svg" xmlns:xlink="http://www.w3.org/1999/xlink" width="400" zoomAndPan="magnify" viewBox="0 0 300 299.999988" height="400" preserveAspectRatio="xMidYMid meet" version="1.0"><defs><clipPath id="7965959dff"><path d="M 18.75 1 L 281.25 1 L 281.25 299 L 18.75 299 Z M 18.75 1 " clip-rule="nonzero"/></clipPath></defs><g clip-path="url(#7965959dff)"><path fill="#e44d26" d="M 42.578125 269.167969 L 18.675781 1.074219 L 281.324219 1.074219 L 257.402344 269.128906 L 149.832031 298.9375 Z M 42.578125 269.167969 " fill-opacity="1" fill-rule="nonzero"/></g><path fill="#f16529" d="M 236.914062 252.058594 L 257.363281 22.996094 L 150 22.996094 L 150 276.160156 Z M 236.914062 252.058594 " fill-opacity="1" fill-rule="nonzero"/><path fill="#ebebeb" d="M 149.886719 55.871094 L 67.546875 55.871094 L 76.417969 155.304688 L 150 155.304688 L 150 122.429688 L 106.492188 122.429688 L 103.484375 88.757812 L 150 88.757812 L 150 55.871094 Z M 150 207.710938 L 149.859375 207.75 L 113.242188 197.863281 L 110.914062 171.640625 L 77.886719 171.640625 L 82.496094 223.265625 L 149.851562 241.882812 L 150 241.835938 Z M 150 207.710938 " fill-opacity="1" fill-rule="nonzero"/><path fill="#ffffff" d="M 149.886719 155.304688 L 190.378906 155.304688 L 186.65625 197.9375 L 149.980469 207.832031 L 149.980469 242.042969 L 217.394531 223.359375 L 226.421875 122.410156 L 150 122.410156 Z M 231.46875 64.695312 L 232.25 55.871094 L 149.871094 55.871094 L 149.871094 88.75 L 229.289062 88.75 L 229.941406 81.359375 Z M 231.46875 64.695312 " fill-opacity="1" fill-rule="nonzero"/></svg>