<svg xmlns="http://www.w3.org/2000/svg" xmlns:xlink="http://www.w3.org/1999/xlink" width="400" zoomAndPan="magnify" viewBox="0 0 300 299.999988" height="400" preserveAspectRatio="xMidYMid meet" version="1.0"><rect x="-30" width="360" fill="#f7df1e" y="-29.999999" height="359.999986" fill-opacity="1"/><path fill="#000000" d="M 78.882812 250.699219 L 101.839844 236.8125 C 106.269531 244.664062 110.296875 251.308594 119.964844 251.308594 C 129.222656 251.308594 135.070312 247.675781 135.070312 233.589844 L 135.070312 137.730469 L 163.253906 137.730469 L 163.253906 233.988281 C 163.253906 263.179688 146.144531 276.480469 121.171875 276.480469 C 98.617188 276.480469 85.527344 264.796875 78.878906 250.699219 " fill-opacity="1" fill-rule="nonzero"/><path fill="#000000" d="M 178.570312 247.675781 L 201.527344 234.386719 C 207.574219 244.253906 215.425781 251.507812 229.3125 251.507812 C 240.996094 251.507812 248.449219 245.671875 248.449219 237.609375 C 248.449219 227.941406 240.796875 224.519531 227.90625 218.882812 L 220.863281 215.859375 C 200.519531 207.199219 187.03125 196.335938 187.03125 173.367188 C 187.03125 152.226562 203.132812 136.113281 228.316406 136.113281 C 246.234375 136.113281 259.125 142.359375 268.382812 158.671875 L 246.433594 172.769531 C 241.605469 164.109375 236.367188 160.6875 228.316406 160.6875 C 220.054688 160.6875 214.816406 165.925781 214.816406 172.769531 C 214.816406 181.230469 220.054688 184.652344 232.136719 189.890625 L 239.179688 192.902344 C 263.144531 203.179688 276.644531 213.644531 276.644531 237.210938 C 276.644531 262.582031 256.710938 276.480469 229.921875 276.480469 C 203.742188 276.480469 186.832031 263.988281 178.570312 247.675781 " fill-opacity="1" fill-rule="nonzero"/></svg>