<svg xmlns="http://www.w3.org/2000/svg" xmlns:xlink="http://www.w3.org/1999/xlink" width="400" zoomAndPan="magnify" viewBox="0 0 300 299.999988" height="400" preserveAspectRatio="xMidYMid meet" version="1.0"><path fill="#83cd29" d="M 275.996094 137.589844 C 275.261719 137.589844 274.554688 137.738281 273.925781 138.09375 L 254.035156 149.589844 C 252.746094 150.332031 251.964844 151.734375 251.964844 153.226562 L 251.964844 176.175781 C 251.964844 177.667969 252.746094 179.066406 254.035156 179.8125 L 259.230469 182.804688 C 261.753906 184.050781 262.683594 184.03125 263.832031 184.03125 C 267.570312 184.03125 269.703125 181.761719 269.703125 177.820312 L 269.703125 155.175781 C 269.703125 154.855469 269.425781 154.625 269.109375 154.625 L 266.617188 154.625 C 266.300781 154.625 266.027344 154.859375 266.027344 155.175781 L 266.027344 177.828125 C 266.027344 179.578125 264.207031 181.335938 261.257812 179.859375 L 255.855469 176.6875 C 255.664062 176.585938 255.519531 176.394531 255.519531 176.179688 L 255.519531 153.230469 C 255.519531 153.011719 255.664062 152.792969 255.855469 152.679688 L 275.703125 141.226562 C 275.890625 141.121094 276.113281 141.121094 276.296875 141.226562 L 296.144531 152.679688 C 296.332031 152.792969 296.484375 153.007812 296.484375 153.230469 L 296.484375 176.179688 C 296.484375 176.398438 296.371094 176.625 296.1875 176.730469 L 276.296875 188.183594 C 276.121094 188.285156 275.886719 188.285156 275.707031 188.183594 L 270.59375 185.140625 C 270.441406 185.054688 270.234375 185.058594 270.089844 185.140625 C 268.679688 185.941406 268.414062 186.035156 267.089844 186.496094 C 266.765625 186.609375 266.269531 186.785156 267.261719 187.339844 L 273.933594 191.277344 C 274.566406 191.644531 275.273438 191.824219 276 191.824219 C 276.738281 191.824219 277.4375 191.648438 278.070312 191.277344 L 297.960938 179.820312 C 299.25 179.070312 300.03125 177.675781 300.03125 176.1875 L 300.03125 153.238281 C 300.03125 151.746094 299.25 150.347656 297.960938 149.601562 L 278.070312 138.105469 C 277.449219 137.75 276.734375 137.597656 276 137.597656 Z M 281.316406 153.988281 C 275.652344 153.988281 272.277344 156.398438 272.277344 160.410156 C 272.277344 164.757812 275.625 165.960938 281.0625 166.496094 C 287.566406 167.136719 288.074219 168.089844 288.074219 169.371094 C 288.074219 171.59375 286.300781 172.542969 282.117188 172.542969 C 276.863281 172.542969 275.707031 171.226562 275.320312 168.605469 C 275.273438 168.324219 275.058594 168.097656 274.769531 168.097656 L 272.1875 168.097656 C 272.027344 168.101562 271.886719 168.160156 271.773438 168.277344 C 271.660156 168.390625 271.601562 168.527344 271.597656 168.691406 C 271.597656 172.039062 273.417969 176 282.113281 176 C 288.40625 176 292.035156 173.535156 292.035156 169.195312 C 292.035156 164.910156 289.105469 163.75 283 162.941406 C 276.835938 162.117188 276.242188 161.726562 276.242188 160.277344 C 276.242188 159.085938 276.742188 157.488281 281.308594 157.488281 C 285.390625 157.488281 286.898438 158.371094 287.519531 161.125 C 287.570312 161.382812 287.800781 161.59375 288.066406 161.59375 L 290.648438 161.59375 C 290.808594 161.59375 290.960938 161.496094 291.070312 161.382812 C 291.179688 161.261719 291.257812 161.125 291.242188 160.957031 C 290.84375 156.214844 287.683594 153.984375 281.316406 153.984375 Z M 281.316406 153.988281 " fill-opacity="1" fill-rule="nonzero"/><path fill="#404137" d="M 159.058594 107.503906 C 158.832031 107.503906 158.621094 107.558594 158.425781 107.671875 C 158.003906 107.917969 157.792969 108.285156 157.792969 108.769531 L 157.792969 141.101562 C 157.792969 141.421875 157.644531 141.703125 157.367188 141.863281 C 157.074219 142.035156 156.777344 142.035156 156.480469 141.863281 L 151.203125 138.820312 C 150.8125 138.59375 150.390625 138.480469 149.9375 138.480469 C 149.484375 138.480469 149.0625 138.59375 148.667969 138.820312 L 127.597656 150.992188 C 126.8125 151.449219 126.332031 152.324219 126.332031 153.234375 L 126.332031 177.578125 C 126.328125 178.03125 126.441406 178.453125 126.667969 178.847656 C 126.894531 179.238281 127.207031 179.546875 127.597656 179.773438 L 148.671875 191.949219 C 149.0625 192.175781 149.484375 192.289062 149.9375 192.289062 C 150.390625 192.289062 150.8125 192.175781 151.203125 191.949219 L 172.277344 179.773438 C 172.671875 179.546875 172.980469 179.238281 173.207031 178.847656 C 173.433594 178.453125 173.546875 178.03125 173.542969 177.578125 L 173.542969 116.886719 C 173.542969 115.960938 173.039062 115.09375 172.234375 114.644531 L 159.691406 107.625 C 159.496094 107.515625 159.277344 107.496094 159.058594 107.5 Z M 23.5 137.890625 C 23.097656 137.90625 22.71875 137.976562 22.359375 138.1875 L 1.285156 150.359375 C 0.894531 150.585938 0.582031 150.894531 0.355469 151.285156 C 0.128906 151.679688 0.0195312 152.101562 0.0195312 152.554688 L 0.0625 185.226562 C 0.0625 185.683594 0.296875 186.105469 0.695312 186.328125 C 1.085938 186.5625 1.574219 186.5625 1.964844 186.328125 L 14.464844 179.140625 C 15.253906 178.671875 15.773438 177.851562 15.773438 176.945312 L 15.773438 161.683594 C 15.773438 160.773438 16.25 159.941406 17.039062 159.488281 L 22.359375 156.402344 C 22.753906 156.175781 23.175781 156.0625 23.628906 156.0625 C 24.082031 156.0625 24.503906 156.175781 24.894531 156.402344 L 30.214844 159.484375 C 31 159.9375 31.480469 160.773438 31.480469 161.683594 L 31.480469 176.941406 C 31.480469 177.847656 32.007812 178.671875 32.789062 179.136719 L 45.289062 186.324219 C 45.683594 186.558594 46.167969 186.558594 46.554688 186.324219 C 46.941406 186.097656 47.191406 185.679688 47.191406 185.222656 L 47.230469 152.554688 C 47.234375 152.101562 47.121094 151.675781 46.894531 151.285156 C 46.667969 150.890625 46.359375 150.582031 45.964844 150.355469 L 24.894531 138.1875 C 24.535156 137.980469 24.15625 137.910156 23.753906 137.890625 Z M 212.855469 138.1875 C 212.40625 138.1875 211.980469 138.296875 211.589844 138.523438 L 190.515625 150.699219 C 189.730469 151.152344 189.25 151.984375 189.25 152.894531 L 189.25 177.238281 C 189.25 178.152344 189.765625 178.984375 190.558594 179.4375 L 211.460938 191.359375 C 212.234375 191.800781 213.175781 191.835938 213.953125 191.402344 L 226.621094 184.34375 C 227.023438 184.121094 227.296875 183.703125 227.296875 183.246094 C 227.296875 182.785156 227.0625 182.375 226.664062 182.144531 L 205.464844 169.972656 C 205.066406 169.746094 204.789062 169.289062 204.789062 168.832031 L 204.789062 161.21875 C 204.789062 160.765625 205.070312 160.347656 205.464844 160.121094 L 212.050781 156.316406 C 212.445312 156.089844 212.925781 156.089844 213.320312 156.316406 L 219.921875 160.121094 C 220.34375 160.363281 220.558594 160.730469 220.554688 161.21875 L 220.554688 167.222656 C 220.554688 167.710938 220.765625 168.074219 221.1875 168.320312 C 221.582031 168.546875 222.0625 168.546875 222.457031 168.320312 L 235.082031 160.964844 C 235.863281 160.507812 236.347656 159.675781 236.347656 158.769531 L 236.347656 152.894531 C 236.347656 152.441406 236.234375 152.019531 236.011719 151.625 C 235.785156 151.234375 235.472656 150.921875 235.082031 150.695312 L 214.136719 138.523438 C 213.746094 138.296875 213.320312 138.183594 212.867188 138.1875 Z M 149.847656 156.363281 C 149.96875 156.359375 150.082031 156.390625 150.1875 156.445312 L 157.410156 160.628906 C 157.605469 160.742188 157.746094 160.953125 157.746094 161.179688 L 157.746094 169.546875 C 157.746094 169.773438 157.605469 169.984375 157.410156 170.097656 L 150.1875 174.28125 C 149.992188 174.390625 149.75 174.390625 149.554688 174.28125 L 142.332031 170.097656 C 142.136719 169.984375 141.996094 169.773438 141.996094 169.546875 L 141.996094 161.179688 C 141.996094 160.953125 142.136719 160.746094 142.332031 160.632812 L 149.554688 156.449219 C 149.652344 156.390625 149.738281 156.363281 149.847656 156.363281 Z M 149.847656 156.363281 " fill-opacity="1" fill-rule="nonzero"/><path fill="#83cd29" d="M 86.800781 138.058594 C 86.347656 138.058594 85.925781 138.171875 85.53125 138.398438 L 64.460938 150.527344 C 63.671875 150.984375 63.191406 151.859375 63.191406 152.769531 L 63.191406 177.113281 C 63.191406 177.566406 63.304688 177.988281 63.53125 178.382812 C 63.757812 178.773438 64.066406 179.082031 64.460938 179.308594 L 85.53125 191.480469 C 85.925781 191.710938 86.347656 191.824219 86.800781 191.824219 C 87.253906 191.824219 87.675781 191.710938 88.066406 191.480469 L 109.140625 179.308594 C 109.53125 179.082031 109.839844 178.773438 110.066406 178.378906 C 110.292969 177.988281 110.40625 177.566406 110.40625 177.113281 L 110.40625 152.769531 C 110.40625 151.859375 109.925781 150.984375 109.136719 150.527344 L 88.066406 138.398438 C 87.671875 138.171875 87.25 138.058594 86.796875 138.0625 Z M 212.816406 159.785156 C 212.730469 159.785156 212.640625 159.785156 212.5625 159.824219 L 208.507812 162.191406 C 208.34375 162.285156 208.257812 162.425781 208.253906 162.613281 L 208.253906 167.265625 C 208.253906 167.4375 208.355469 167.597656 208.507812 167.6875 L 212.5625 170.011719 C 212.71875 170.105469 212.871094 170.105469 213.027344 170.011719 L 217.082031 167.6875 C 217.230469 167.601562 217.332031 167.4375 217.332031 167.265625 L 217.332031 162.613281 C 217.332031 162.441406 217.230469 162.28125 217.082031 162.191406 L 213.027344 159.824219 C 212.949219 159.78125 212.898438 159.785156 212.816406 159.785156 Z M 212.816406 159.785156 " fill-opacity="1" fill-rule="nonzero"/></svg>