<svg xmlns="http://www.w3.org/2000/svg" xmlns:xlink="http://www.w3.org/1999/xlink" width="400" zoomAndPan="magnify" viewBox="0 0 300 299.999988" height="400" preserveAspectRatio="xMidYMid meet" version="1.0"><path fill="#00d8ff" d="M 246.542969 103.214844 C 243.441406 102.144531 240.222656 101.128906 236.898438 100.171875 C 237.449219 97.945312 237.949219 95.746094 238.394531 93.582031 C 245.6875 58.09375 240.925781 29.5 224.617188 20.085938 C 208.980469 11.058594 183.417969 20.472656 157.597656 42.972656 C 155.113281 45.132812 152.621094 47.425781 150.140625 49.824219 C 148.476562 48.238281 146.828125 46.703125 145.175781 45.234375 C 118.117188 21.175781 90.992188 11.035156 74.707031 20.476562 C 59.085938 29.53125 54.464844 56.410156 61.035156 90.046875 C 61.671875 93.296875 62.414062 96.613281 63.25 99.988281 C 59.414062 101.078125 55.707031 102.242188 52.160156 103.476562 C 20.4375 114.554688 0.175781 131.910156 0.175781 149.917969 C 0.175781 168.507812 21.925781 187.167969 54.96875 198.476562 C 57.578125 199.367188 60.28125 200.210938 63.070312 201.007812 C 62.167969 204.652344 61.378906 208.230469 60.71875 211.722656 C 54.453125 244.773438 59.34375 271.015625 74.921875 280.007812 C 91.007812 289.300781 118.011719 279.75 144.300781 256.742188 C 146.382812 254.925781 148.464844 252.988281 150.550781 250.972656 C 153.265625 253.574219 155.96875 256.050781 158.648438 258.371094 C 184.121094 280.3125 209.273438 289.171875 224.828125 280.160156 C 240.902344 270.839844 246.132812 242.640625 239.34375 208.34375 C 238.828125 205.71875 238.21875 203.046875 237.554688 200.328125 C 239.449219 199.765625 241.308594 199.179688 243.125 198.582031 C 277.476562 187.179688 299.824219 168.765625 299.824219 149.917969 C 299.824219 131.84375 278.90625 114.371094 246.542969 103.214844 Z M 239.097656 186.417969 C 237.460938 186.957031 235.773438 187.484375 234.066406 187.988281 C 230.273438 175.972656 225.15625 163.1875 218.882812 149.976562 C 224.863281 137.082031 229.78125 124.464844 233.46875 112.523438 C 236.535156 113.410156 239.507812 114.347656 242.375 115.335938 C 270.105469 124.894531 287.019531 139.03125 287.019531 149.917969 C 287.019531 161.507812 268.757812 176.570312 239.097656 186.417969 Z M 226.785156 210.832031 C 229.792969 225.996094 230.214844 239.710938 228.222656 250.433594 C 226.445312 260.070312 222.851562 266.492188 218.414062 269.058594 C 208.96875 274.53125 188.777344 267.417969 167.007812 248.652344 C 164.503906 246.496094 161.984375 244.199219 159.46875 241.773438 C 167.910156 232.527344 176.347656 221.777344 184.589844 209.835938 C 199.066406 208.558594 212.75 206.445312 225.167969 203.574219 C 225.777344 206.046875 226.316406 208.464844 226.785156 210.832031 Z M 102.335938 268.109375 C 93.113281 271.378906 85.761719 271.472656 81.320312 268.90625 C 71.871094 263.445312 67.941406 242.371094 73.300781 214.113281 C 73.914062 210.878906 74.644531 207.546875 75.488281 204.148438 C 87.761719 206.867188 101.347656 208.828125 115.867188 210 C 124.160156 221.683594 132.84375 232.421875 141.589844 241.820312 C 139.679688 243.671875 137.773438 245.429688 135.875 247.082031 C 124.253906 257.269531 112.605469 264.488281 102.335938 268.109375 Z M 59.113281 186.347656 C 44.503906 181.339844 32.4375 174.847656 24.167969 167.746094 C 16.734375 161.378906 12.980469 155.050781 12.980469 149.917969 C 12.980469 138.996094 29.25 125.054688 56.378906 115.582031 C 59.671875 114.433594 63.117188 113.347656 66.695312 112.332031 C 70.445312 124.542969 75.363281 137.316406 81.296875 150.222656 C 75.285156 163.328125 70.296875 176.300781 66.511719 188.667969 C 63.960938 187.929688 61.492188 187.15625 59.113281 186.347656 Z M 73.601562 87.585938 C 67.972656 58.765625 71.710938 37.027344 81.125 31.570312 C 91.148438 25.761719 113.3125 34.046875 136.671875 54.820312 C 138.171875 56.148438 139.667969 57.535156 141.179688 58.972656 C 132.46875 68.335938 123.867188 78.992188 115.648438 90.605469 C 101.554688 91.914062 88.066406 94.015625 75.664062 96.828125 C 74.882812 93.6875 74.191406 90.601562 73.601562 87.585938 Z M 202.847656 119.542969 C 199.886719 114.414062 196.84375 109.410156 193.742188 104.539062 C 203.304688 105.75 212.457031 107.355469 221.0625 109.320312 C 218.488281 117.609375 215.269531 126.273438 211.476562 135.160156 C 208.761719 129.992188 205.878906 124.78125 202.847656 119.542969 Z M 150.140625 68.136719 C 156.050781 74.539062 161.964844 81.691406 167.78125 89.449219 C 161.917969 89.175781 155.980469 89.03125 150 89.03125 C 144.078125 89.03125 138.191406 89.171875 132.363281 89.445312 C 138.179688 81.757812 144.148438 74.613281 150.140625 68.136719 Z M 97.097656 119.632812 C 94.136719 124.773438 91.3125 129.957031 88.636719 135.148438 C 84.910156 126.296875 81.722656 117.589844 79.117188 109.183594 C 87.667969 107.269531 96.785156 105.703125 106.285156 104.515625 C 103.136719 109.429688 100.066406 114.472656 97.097656 119.632812 Z M 106.554688 196.226562 C 96.742188 195.136719 87.488281 193.648438 78.941406 191.785156 C 81.585938 183.226562 84.84375 174.34375 88.652344 165.296875 C 91.335938 170.488281 94.167969 175.667969 97.148438 180.824219 C 100.183594 186.078125 103.328125 191.210938 106.554688 196.226562 Z M 150.492188 232.597656 C 144.429688 226.042969 138.378906 218.789062 132.46875 210.996094 C 138.203125 211.21875 144.054688 211.335938 150 211.335938 C 156.109375 211.335938 162.152344 211.195312 168.085938 210.9375 C 162.257812 218.871094 156.355469 226.136719 150.492188 232.597656 Z M 211.59375 164.839844 C 215.59375 173.980469 218.976562 182.816406 221.660156 191.234375 C 212.972656 193.214844 203.585938 194.808594 193.707031 196.003906 C 196.820312 191.070312 199.886719 185.972656 202.90625 180.730469 C 205.960938 175.433594 208.855469 170.125 211.59375 164.839844 Z M 191.8125 174.332031 C 187.128906 182.464844 182.320312 190.226562 177.4375 197.550781 C 168.554688 198.183594 159.363281 198.511719 150 198.511719 C 140.671875 198.511719 131.601562 198.230469 122.867188 197.65625 C 117.789062 190.238281 112.878906 182.453125 108.226562 174.402344 C 103.585938 166.375 99.3125 158.273438 95.441406 150.222656 C 99.3125 142.160156 103.574219 134.046875 108.1875 126.035156 C 112.8125 118 117.683594 110.253906 122.71875 102.875 C 131.625 102.199219 140.765625 101.847656 150 101.847656 C 159.28125 101.847656 168.425781 102.203125 177.332031 102.882812 C 182.296875 110.207031 187.128906 117.929688 191.777344 125.964844 C 196.46875 134.09375 200.789062 142.148438 204.6875 150.046875 C 200.800781 158.074219 196.492188 166.210938 191.8125 174.332031 Z M 218.21875 31.1875 C 228.261719 36.980469 232.15625 60.347656 225.847656 90.992188 C 225.449219 92.949219 224.996094 94.941406 224.503906 96.957031 C 212.074219 94.085938 198.578125 91.949219 184.449219 90.621094 C 176.207031 78.878906 167.675781 68.207031 159.109375 58.964844 C 161.414062 56.746094 163.71875 54.632812 166 52.636719 C 188.125 33.359375 208.808594 25.746094 218.21875 31.1875 Z M 150 123.117188 C 164.773438 123.117188 176.757812 135.109375 176.757812 149.914062 C 176.757812 164.707031 164.773438 176.707031 150 176.707031 C 135.230469 176.707031 123.242188 164.707031 123.242188 149.914062 C 123.242188 135.109375 135.230469 123.117188 150 123.117188 Z M 150 123.117188 " fill-opacity="1" fill-rule="nonzero"/></svg>