<svg xmlns="http://www.w3.org/2000/svg" xmlns:xlink="http://www.w3.org/1999/xlink" width="400" zoomAndPan="magnify" viewBox="0 0 300 299.999988" height="400" preserveAspectRatio="xMidYMid meet" version="1.0"><rect x="-30" width="360" fill="#007acc" y="-29.999999" height="359.999986" fill-opacity="1"/><path fill="#ffffff" d="M 66.328125 150.984375 L 66.234375 163.277344 L 105.28125 163.277344 L 105.28125 274.230469 L 132.902344 274.230469 L 132.902344 163.277344 L 171.949219 163.277344 L 171.949219 151.230469 C 171.949219 144.5625 171.804688 138.984375 171.617188 138.84375 C 171.472656 138.65625 147.710938 138.5625 118.898438 138.609375 L 66.46875 138.75 Z M 66.328125 150.984375 " fill-opacity="1" fill-rule="nonzero"/><path fill="#ffffff" d="M 242.074219 138.410156 C 249.691406 140.308594 255.503906 143.695312 260.835938 149.214844 C 263.589844 152.167969 267.691406 157.546875 268.019531 158.835938 C 268.113281 159.222656 255.070312 167.976562 247.160156 172.886719 C 246.878906 173.074219 245.742188 171.832031 244.453125 169.933594 C 240.597656 164.308594 236.542969 161.882812 230.355469 161.460938 C 221.261719 160.839844 215.402344 165.597656 215.449219 173.554688 C 215.449219 175.886719 215.789062 177.269531 216.738281 179.167969 C 218.742188 183.316406 222.457031 185.789062 234.117188 190.839844 C 255.597656 200.074219 264.785156 206.167969 270.503906 214.839844 C 276.878906 224.507812 278.308594 239.929688 273.972656 251.402344 C 269.214844 263.882812 257.402344 272.355469 240.785156 275.167969 C 235.640625 276.070312 223.453125 275.929688 217.921875 274.933594 C 205.875 272.789062 194.449219 266.835938 187.40625 259.03125 C 184.640625 255.984375 179.261719 248.027344 179.589844 247.453125 C 179.742188 247.265625 180.972656 246.503906 182.355469 245.695312 C 183.691406 244.933594 188.742188 242.027344 193.5 239.261719 L 202.113281 234.269531 L 203.929688 236.929688 C 206.449219 240.785156 211.980469 246.070312 215.308594 247.839844 C 224.882812 252.878906 238.019531 252.164062 244.5 246.363281 C 247.265625 243.832031 248.402344 241.21875 248.402344 237.363281 C 248.402344 233.882812 247.980469 232.359375 246.164062 229.746094 C 243.832031 226.40625 239.074219 223.59375 225.550781 217.746094 C 210.070312 211.078125 203.402344 206.929688 197.308594 200.355469 C 193.78125 196.546875 190.453125 190.453125 189.070312 185.355469 C 187.921875 181.125 187.640625 170.507812 188.542969 166.21875 C 191.742188 151.265625 203.027344 140.835938 219.304688 137.742188 C 224.589844 136.746094 236.882812 137.121094 242.074219 138.410156 Z M 242.074219 138.410156 " fill-opacity="1" fill-rule="nonzero"/></svg>